<?xml version="1.0" encoding="utf-8"?>
<!-- Generator: Adobe Illustrator 27.9.4, SVG Export Plug-In . SVG Version: 9.03 Build 54784)  -->
<svg version="1.1" id="레이어_1" xmlns="http://www.w3.org/2000/svg" xmlns:xlink="http://www.w3.org/1999/xlink" x="0px"
	 y="0px" viewBox="0 0 967 709" style="enable-background:new 0 0 967 709;" xml:space="preserve">
<style type="text/css">
	.st0{fill:#FFFFFF;fill-opacity:0.25;}
</style>
<path class="st0" d="M0,392L441.6,2.8c0,0,8.3-6.2,14.6,0C462.5,9,687.4,244.2,952,31.9h14.6v12.5c0,0-93.7,141.5-275,145.7
	c0,0-135.4-14.6-239.6-91.6L100,396.2l60.4,54.1L475,183.9c0,0,222.9,233.1,487.5,41.6c0,0-35.4,127-252.1,129.1
	c0,0-81.2,6.2-233.3-77L112.5,577.3c0,0,66.7,64.5,175,64.5c2.1,0,2.1,0,4.2,0c110.4,0,127.1-22.9,216.6-102c0,0,62.5-72.9,127.1-77
	c0,0,64.6-4.2,35.4,35.4c0,0-145.8,131.1-225,172.8c0,0-52.1,37.5-143.7,37.5c0,0-154.2,6.2-277.1-133.2l89.6-81.2L0,392z"/>
</svg>
