<svg width="349" height="56" viewBox="0 0 349 56" fill="none" xmlns="http://www.w3.org/2000/svg">
<path d="M0.65918 30.9647L35.5955 0.164707C35.5955 0.164707 36.2547 -0.329411 36.7491 0.164707C37.2434 0.658824 55.0412 19.2706 75.97 2.47059H77.1236V3.45882C77.1236 3.45882 69.7079 14.6588 55.3708 14.9882C55.3708 14.9882 44.6592 13.8353 36.4195 7.74118L8.56929 31.2941L13.3483 35.5765L38.2322 14.4941C38.2322 14.4941 55.8652 32.9412 76.794 17.7882C76.794 17.7882 73.9925 27.8353 56.8539 28C56.8539 28 50.427 28.4941 38.397 21.9059L9.55806 45.6235C9.55806 45.6235 14.8315 50.7294 23.4008 50.7294C23.5655 50.7294 23.5655 50.7294 23.7303 50.7294C32.4644 50.7294 33.7828 48.9176 40.8689 42.6588C40.8689 42.6588 45.8127 36.8941 50.9214 36.5647C50.9214 36.5647 56.03 36.2353 53.7228 39.3647C53.7228 39.3647 42.1873 49.7412 35.9251 53.0353C35.9251 53.0353 31.8052 56 24.5543 56C24.5543 56 12.3596 56.4941 2.63671 45.4588L9.72285 39.0353L0.65918 30.9647Z" fill="#91561F"/>
<path d="M92.9438 6.42352C93.7678 6.75293 94.2622 7.41176 94.7565 8.07058C95.2509 8.7294 95.4157 9.55293 95.4157 10.5412C95.4157 11.5294 95.2509 12.1882 94.7565 13.0118C94.2622 13.6706 93.7678 14.3294 92.9438 14.6588C92.1198 14.9882 91.2959 15.3176 90.4719 15.3176C89.4831 15.3176 88.6592 15.1529 88 14.6588C87.176 14.3294 86.6816 13.6706 86.1872 13.0118C85.6929 12.3529 85.5281 11.5294 85.5281 10.5412C85.5281 9.71764 85.6929 8.89411 86.1872 8.07058C86.6816 7.41176 87.176 6.75293 88 6.42352C88.824 6.09411 89.6479 5.7647 90.4719 5.7647C91.2959 5.7647 92.1198 5.9294 92.9438 6.42352ZM88.824 7.90587C88.3296 8.07058 88 8.5647 87.6704 8.89411C87.3408 9.22352 87.3408 9.88234 87.3408 10.3765C87.3408 11.0353 87.5056 11.5294 87.6704 11.8588C88 12.3529 88.3296 12.6823 88.824 12.847C89.3183 13.0118 89.8127 13.1765 90.4719 13.1765C90.9663 13.1765 91.6255 13.0118 91.955 12.847C92.4494 12.6823 92.779 12.1882 93.1086 11.8588C93.4382 11.3647 93.4382 10.8706 93.4382 10.3765C93.4382 9.88234 93.2734 9.38823 93.1086 8.89411C92.779 8.39999 92.4494 8.07058 91.955 7.90587C91.4607 7.57646 90.9663 7.57646 90.4719 7.57646C89.8127 7.57646 89.3183 7.74117 88.824 7.90587ZM101.184 22.8941H88.3296V16.8H90.3071V21.247H101.184V22.8941ZM100.524 18.1176H98.5468V4.61176H100.524V18.1176Z" fill="#040000"/>
<path d="M110.742 11.2C111.071 11.8588 111.73 12.5176 112.389 13.1765C113.049 13.6706 113.873 14.1647 114.861 14.4941L113.873 16.1412C112.884 15.8118 111.895 15.3176 111.071 14.6588C110.247 14 109.588 13.1765 109.258 12.1882C108.764 13.1765 108.27 14 107.446 14.8235C106.622 15.4823 105.633 16.1412 104.644 16.4706L103.491 14.8235C104.479 14.4941 105.303 14 105.963 13.5059C106.622 12.847 107.116 12.1882 107.61 11.5294C107.94 10.7059 108.105 9.88234 108.105 9.05881V8.5647H103.985V6.91764H108.105V4.61176H110.082V6.91764H114.202V8.5647H110.082V9.05881C110.082 9.71764 110.247 10.5412 110.742 11.2ZM119.64 22.8941H106.951V17.2941H108.929V21.247H119.64V22.8941ZM119.146 18.447H117.169V11.8588H113.543V10.2118H117.169V4.61176H119.146V18.447Z" fill="#040000"/>
<path d="M127.715 13.3412C130.022 13.1765 132 13.1765 133.648 12.847L133.813 14.3294C132 14.4941 130.187 14.8235 128.21 14.8235C126.232 14.9882 124.255 14.9882 122.112 14.9882L121.948 13.3412C123.595 13.3412 124.914 13.3412 125.738 13.3412V9.71764H127.715V13.3412ZM132.494 6.75293C132.494 7.57646 132.494 8.39999 132.33 9.22352C132.33 10.047 132.165 10.8706 132 11.8588L130.022 11.5294C130.187 10.7059 130.352 9.88234 130.352 9.22352C130.352 8.5647 130.517 7.90587 130.517 7.08234H123.101V5.43528H132.494V6.75293ZM134.142 16.8C135.131 17.1294 135.79 17.4588 136.285 17.9529C136.779 18.447 137.109 19.1059 137.109 19.7647C137.109 20.4235 136.779 21.0823 136.285 21.5765C135.79 22.0706 134.966 22.5647 134.142 22.7294C133.154 23.0588 132 23.0588 130.682 23.0588C129.363 23.0588 128.21 22.8941 127.221 22.7294C126.232 22.5647 125.573 22.0706 125.079 21.5765C124.584 21.0823 124.255 20.4235 124.255 19.7647C124.255 19.1059 124.584 18.447 125.079 17.9529C125.573 17.4588 126.397 17.1294 127.221 16.8C128.21 16.4706 129.363 16.4706 130.517 16.4706C132 16.3059 133.154 16.4706 134.142 16.8ZM128.375 18.1176C127.715 18.2823 127.221 18.447 126.891 18.7765C126.562 19.1059 126.397 19.4353 126.397 19.7647C126.397 20.4235 126.727 20.9176 127.551 21.0823C128.375 21.4118 129.363 21.5765 130.682 21.5765C132 21.5765 133.154 21.4118 133.813 21.0823C134.637 20.7529 134.966 20.2588 134.966 19.6C134.966 19.2706 134.801 18.9412 134.472 18.6118C134.142 18.2823 133.648 18.1176 132.989 17.9529C132.33 17.7882 131.506 17.7882 130.682 17.7882C129.858 17.7882 129.034 17.9529 128.375 18.1176ZM136.944 9.55293H139.58V11.2H136.944V16.1412H134.966V4.61176H136.944V9.55293Z" fill="#040000"/>
<path d="M156.225 15.647H154.247V13.0118H149.633C149.139 13.5059 148.644 14 147.985 14.1647C147.326 14.3294 146.502 14.6588 145.843 14.6588C144.854 14.6588 144.03 14.4941 143.371 14C142.712 13.6706 142.052 13.0118 141.558 12.3529C141.064 11.6941 140.899 10.8706 140.899 10.047C140.899 9.22352 141.064 8.39999 141.558 7.74117C142.052 7.08234 142.547 6.58823 143.371 6.09411C144.195 5.7647 145.019 5.43528 145.843 5.43528C146.667 5.43528 147.326 5.59999 147.985 5.9294C148.644 6.25881 149.139 6.58823 149.633 7.08234H154.247V4.61176H156.225V15.647ZM144.195 7.57646C143.7 7.90587 143.371 8.23528 143.206 8.5647C142.876 9.05881 142.876 9.55293 142.876 10.047C142.876 10.5412 143.041 11.0353 143.206 11.5294C143.536 12.0235 143.865 12.3529 144.36 12.5176C144.854 12.6823 145.348 12.847 145.843 12.847C146.337 12.847 146.996 12.6823 147.326 12.5176C147.82 12.3529 148.15 12.0235 148.315 11.5294C148.644 11.0353 148.644 10.5412 148.644 10.047C148.644 9.55293 148.479 9.05881 148.315 8.5647C147.985 8.07058 147.655 7.74117 147.326 7.57646C146.831 7.41176 146.337 7.24705 145.843 7.24705C145.184 7.24705 144.689 7.41176 144.195 7.57646ZM156.225 23.2235H154.247V18.1176H143.536V16.4706H156.225V23.2235ZM154.247 11.3647V8.89411H150.457C150.622 9.22352 150.622 9.71764 150.622 10.2118C150.622 10.7059 150.622 11.0353 150.457 11.5294H154.247V11.3647Z" fill="#040000"/>
<path d="M166.607 12.6823C167.101 13.8353 167.595 14.8235 168.419 15.647C169.243 16.4706 170.067 17.1294 171.056 17.6235L169.903 19.2706C168.914 18.7765 167.925 17.9529 167.101 16.9647C166.277 15.9765 165.618 14.8235 165.124 13.5059C164.629 14.8235 163.97 16.1412 163.146 17.1294C162.322 18.1176 161.333 18.9412 160.18 19.6L159.026 17.9529C160.015 17.4588 160.839 16.8 161.663 15.9765C162.487 15.1529 162.981 14.1647 163.476 13.0118C163.97 11.8588 164.135 10.7059 164.135 9.55293V6.09411H166.112V9.22352C165.948 10.3765 166.277 11.5294 166.607 12.6823ZM174.682 23.3882H172.704V4.61176H174.682V23.3882Z" fill="#040000"/>
<path d="M194.786 20.7529H177.648V19.1059H181.768V13.0118H183.745V19.1059H186.382V13.0118H188.36V19.1059H194.786V20.7529ZM192.809 8.4V8.5647C192.809 10.0471 192.809 11.5294 192.644 12.6823C192.479 13.8353 192.315 15.1529 192.15 16.8L190.172 16.6353C190.337 15.6471 190.502 14.6588 190.667 13.6706C190.831 12.6823 190.831 11.8588 190.831 11.2C190.831 10.5412 190.831 9.55294 190.831 8.5647V7.90588H179.296V6.25882H192.809V8.4Z" fill="#040000"/>
<path d="M213.243 15.1529H208.794V17.2941H211.101V23.3882H209.124V18.9412H198.082V17.2941H200.554V15.1529H196.105V13.5059H213.243V15.1529ZM208.3 5.43528C209.288 5.76469 210.112 6.0941 210.607 6.75293C211.101 7.24704 211.431 7.90587 211.431 8.7294C211.431 9.55293 211.101 10.047 210.607 10.7059C210.112 11.2 209.288 11.6941 208.3 12.0235C207.311 12.3529 206.157 12.5176 204.674 12.5176C203.356 12.5176 202.202 12.3529 201.049 12.0235C200.06 11.6941 199.236 11.3647 198.742 10.7059C198.247 10.2118 197.918 9.55293 197.918 8.7294C197.918 7.90587 198.247 7.41175 198.742 6.75293C199.236 6.25881 200.06 5.76469 201.049 5.43528C202.037 5.10587 203.191 4.94116 204.674 4.94116C205.992 4.94116 207.311 5.10587 208.3 5.43528ZM202.202 6.75293C201.543 6.91763 200.884 7.08234 200.554 7.41175C200.225 7.74116 200.06 8.07057 200.06 8.56469C200.06 9.05881 200.225 9.38822 200.554 9.71763C200.884 10.047 201.543 10.2118 202.202 10.3765C202.861 10.5412 203.685 10.5412 204.674 10.5412C205.663 10.5412 206.487 10.5412 207.146 10.3765C207.805 10.2118 208.3 10.047 208.794 9.71763C209.124 9.38822 209.288 9.05881 209.288 8.56469C209.288 8.07057 209.124 7.74116 208.794 7.41175C208.464 7.08234 207.805 6.91763 207.146 6.75293C206.487 6.58822 205.663 6.58822 204.674 6.58822C203.685 6.58822 202.861 6.58822 202.202 6.75293ZM206.816 17.2941V15.1529H202.367V17.2941H206.816Z" fill="#040000"/>
<path d="M221.813 10.7059C222.142 11.3647 222.801 12.0235 223.461 12.5176C224.12 13.0118 224.944 13.3412 225.933 13.6706L224.944 15.1529C223.79 14.8235 222.966 14.3294 222.142 13.6706C221.318 13.0118 220.659 12.3529 220.33 11.3647C220 12.3529 219.341 13.1765 218.517 14C217.693 14.6588 216.704 15.3176 215.715 15.6471L214.727 14.1647C215.715 13.8353 216.539 13.5059 217.198 12.8471C217.858 12.3529 218.352 11.6941 218.846 10.8706C219.176 10.2118 219.341 9.38823 219.341 8.5647V8.23529H215.221V6.58823H219.341V4.44705H221.318V6.75293H225.438V8.39999H221.318V8.5647C221.318 9.22352 221.483 10.0471 221.813 10.7059ZM227.416 16.8C228.404 17.1294 229.064 17.4588 229.558 17.9529C230.052 18.4471 230.382 19.1059 230.382 19.7647C230.382 20.4235 230.052 21.0823 229.558 21.5765C229.064 22.0706 228.24 22.5647 227.416 22.7294C226.427 23.0588 225.273 23.0588 224.12 23.0588C222.801 23.0588 221.648 22.8941 220.659 22.7294C219.67 22.5647 219.011 22.0706 218.517 21.5765C218.022 21.0823 217.693 20.4235 217.693 19.7647C217.693 19.1059 217.858 18.4471 218.517 17.9529C219.011 17.4588 219.835 16.9647 220.659 16.8C221.648 16.4706 222.801 16.4706 224.12 16.4706C225.273 16.3059 226.427 16.4706 227.416 16.8ZM220.824 18.2823C220 18.6118 219.67 19.1059 219.67 19.7647C219.67 20.0941 219.835 20.5882 220.165 20.7529C220.494 21.0823 220.989 21.2471 221.648 21.4118C222.307 21.5765 223.131 21.5765 223.955 21.5765C224.944 21.5765 225.603 21.5765 226.262 21.4118C226.921 21.2471 227.416 21.0823 227.745 20.7529C228.075 20.4235 228.24 20.0941 228.24 19.7647C228.24 19.1059 227.91 18.6118 227.086 18.2823C226.262 17.9529 225.273 17.7882 223.79 17.7882C222.637 17.7882 221.648 17.9529 220.824 18.2823ZM230.382 15.8118H228.404V11.3647H224.779V9.71764H228.404V4.61176H230.382V15.8118Z" fill="#040000"/>
<path d="M243.236 18.1176V16.1412C242.577 15.9765 241.918 15.8118 241.423 15.4823C240.929 15.1529 240.434 14.8235 240.27 14.3294C239.94 13.8353 239.775 13.3412 239.94 12.6823C239.94 12.0235 240.105 11.3647 240.434 10.8706C240.764 10.3765 241.258 9.88234 242.082 9.55293C242.742 9.22352 243.566 9.05881 244.389 9.05881C245.213 9.05881 246.037 9.22352 246.697 9.55293C247.356 9.88234 247.85 10.2118 248.345 10.8706C248.674 11.3647 249.004 12.0235 249.004 12.6823C249.004 13.3412 248.839 13.8353 248.509 14.3294C248.18 14.8235 247.85 15.1529 247.356 15.4823C246.861 15.8118 246.202 15.9765 245.543 16.1412V18.1176C247.356 18.1176 249.004 17.9529 250.487 17.6235L250.652 19.1059C248.839 19.4353 247.026 19.6 245.213 19.7647C243.401 19.9294 241.258 19.9294 238.951 19.9294L238.622 18.2823C240.27 18.1176 241.918 18.1176 243.236 18.1176ZM249.828 8.39999H238.622V6.75293H243.236V4.61176H245.213V6.75293H249.828V8.39999ZM242.742 11.0353C242.412 11.2 242.082 11.3647 241.753 11.6941C241.588 12.0235 241.423 12.3529 241.423 12.6823C241.423 13.3412 241.588 13.6706 242.082 14.1647C242.577 14.4941 243.236 14.6588 244.06 14.6588C244.884 14.6588 245.543 14.4941 246.037 14.1647C246.532 13.8353 246.697 13.3412 246.697 12.6823C246.697 12.3529 246.532 12.0235 246.367 11.6941C246.202 11.3647 245.873 11.2 245.378 11.0353C245.049 10.8706 244.554 10.8706 244.06 10.8706C243.73 10.8706 243.236 10.8706 242.742 11.0353ZM253.124 12.3529H255.925V14H253.124V23.2235H251.146V4.61176H253.124V12.3529Z" fill="#040000"/>
<path d="M272.075 14.8235H266.472V19.4353H274.052V21.0824H256.914V19.4353H264.494V14.8235H259.056V5.92941H271.91V7.57647H261.034V13.1765H272.075V14.8235Z" fill="#040000"/>
<path d="M282.951 10.7059C283.281 11.5294 283.94 12.1882 284.599 12.6823C285.258 13.1765 286.082 13.6706 287.071 14L286.082 15.4823C285.094 15.1529 284.105 14.6588 283.281 13.8353C282.457 13.1765 281.798 12.3529 281.468 11.3647C280.974 12.3529 280.479 13.3412 279.655 14C278.831 14.8235 277.843 15.3176 276.689 15.8118L275.7 14.1647C276.689 13.8353 277.513 13.3412 278.172 12.6823C278.831 12.0235 279.491 11.3647 279.82 10.5412C280.15 9.71764 280.479 8.89411 280.479 8.07058V7.57646H276.195V5.9294H286.577V7.57646H282.457V8.39999C282.457 9.22352 282.622 10.047 282.951 10.7059ZM291.521 22.8941H278.667V16.9647H280.644V21.247H291.521V22.8941ZM291.026 18.2823H289.049V4.61176H291.026V18.2823Z" fill="#040000"/>
<path d="M309.154 14.8235H303.551V19.4353H311.131V21.0824H293.992V19.4353H301.573V14.8235H296.135V5.92941H308.989V7.57647H298.112V13.1765H309.154V14.8235Z" fill="#040000"/>
<path d="M319.865 12.6823C320.195 13.8353 320.854 14.6588 321.513 15.647C322.172 16.4706 322.996 17.1294 323.985 17.6235L322.831 19.2706C321.843 18.7765 320.854 17.9529 320.03 16.9647C319.206 15.9765 318.712 14.8235 318.217 13.5059C317.723 14.8235 317.228 16.1412 316.404 17.1294C315.58 18.2823 314.592 18.9412 313.603 19.6L312.285 17.9529C313.273 17.4588 314.097 16.8 314.757 15.9765C315.416 15.1529 316.075 14 316.404 13.0118C316.734 11.8588 317.064 10.7059 317.064 9.55293V6.09411H319.041V9.22352C319.371 10.3765 319.536 11.5294 319.865 12.6823ZM328.105 23.3882H326.127V12.3529H322.007V10.7059H326.127V4.61176H328.105V23.3882Z" fill="#040000"/>
<path d="M336.674 14C338.981 13.8353 340.959 13.6706 342.607 13.5059L342.772 14.9882C341.124 15.3176 339.146 15.4823 337.333 15.647C335.521 15.8118 333.378 15.8118 331.071 15.8118L330.906 14.1647H331.071C331.566 14.1647 332.06 14.1647 332.884 14.1647C333.543 14.1647 334.202 14.1647 334.697 14.1647V10.2118H336.674V14ZM341.453 7.08234V7.41176C341.453 8.39999 341.453 9.22352 341.288 10.047C341.288 10.8706 341.124 11.6941 340.959 12.6823L338.981 12.5176C339.146 11.5294 339.311 10.7059 339.311 10.047C339.311 9.38823 339.476 8.5647 339.476 7.74117H331.895V6.09411H341.288V7.08234H341.453ZM346.562 22.8941H333.873V17.2941H335.85V21.247H346.562V22.8941ZM345.903 10.5412H348.539V12.1882H345.903V18.6118H343.925V4.61176H345.903V10.5412Z" fill="#040000"/>
<path d="M96.2397 33.7647H85.0337V32.1176H89.6479V29.9765H91.6255V32.1176H96.2397V33.7647ZM92.9438 35.0824C93.603 35.4118 94.0974 35.7412 94.5917 36.2353C94.9213 36.7294 95.0861 37.3882 95.0861 38.0471C95.0861 38.7059 94.9213 39.3647 94.5917 39.8588C94.2622 40.3529 93.603 40.6824 92.9438 41.0118C92.2846 41.3412 91.4607 41.3412 90.6367 41.3412C89.6479 41.3412 88.9887 41.1765 88.1648 41.0118C87.3408 40.8471 87.0112 40.3529 86.5168 39.8588C86.0225 39.3647 86.0225 38.7059 86.0225 38.0471C86.0225 37.3882 86.1873 36.7294 86.5168 36.2353C86.8464 35.7412 87.5056 35.4118 88.1648 35.0824C88.824 34.7529 89.6479 34.5882 90.6367 34.5882C91.4607 34.7529 92.2846 34.7529 92.9438 35.0824ZM97.0637 42.8235C98.0524 43.1529 98.7116 43.4824 99.206 43.9765C99.7004 44.4706 100.03 45.1294 100.03 45.7882C100.03 46.4471 99.7004 47.1059 99.206 47.6C98.7116 48.0941 98.0524 48.4235 97.0637 48.7529C96.0749 49.0824 95.0861 49.0824 93.7678 49.0824C92.4494 49.0824 91.2959 48.9176 90.4719 48.7529C89.4831 48.4235 88.824 48.0941 88.3296 47.6C87.8352 47.1059 87.5056 46.4471 87.6704 45.7882C87.6704 45.1294 87.8352 44.4706 88.3296 43.9765C88.824 43.4824 89.4831 43.1529 90.4719 42.8235C91.4607 42.4941 92.4494 42.4941 93.7678 42.4941C95.0861 42.4941 96.0749 42.4941 97.0637 42.8235ZM89.1535 36.4C88.824 36.5647 88.4944 36.7294 88.1648 37.0588C88 37.3882 87.8352 37.7176 87.8352 38.0471C87.8352 38.3765 88 38.7059 88.1648 39.0353C88.3296 39.3647 88.6592 39.5294 89.1535 39.6941C89.4831 39.8588 89.9775 39.8588 90.4719 39.8588C91.2959 39.8588 91.955 39.6941 92.4494 39.3647C92.9438 39.0353 93.1086 38.5412 93.2734 38.0471C93.2734 37.5529 92.9438 37.0588 92.4494 36.7294C92.1198 36.4 91.4607 36.2353 90.6367 36.2353C90.1423 36.2353 89.6479 36.2353 89.1535 36.4ZM90.6367 44.4706C89.9775 44.8 89.4831 45.1294 89.4831 45.7882C89.4831 46.2824 89.8127 46.7765 90.6367 47.1059C91.4607 47.4353 92.4494 47.6 93.7678 47.6C95.0861 47.6 96.0749 47.4353 96.8989 47.1059C97.7228 46.7765 98.0524 46.4471 98.0524 45.7882C98.0524 45.2941 97.7228 44.8 96.8989 44.4706C96.2397 44.1412 95.0861 43.9765 93.7678 43.9765C92.4494 43.9765 91.2959 44.1412 90.6367 44.4706ZM102.337 34.9176H99.7004V37.2235H102.337V38.8706H99.7004V42.1647H97.7228V30.1412H99.7004V33.2706H102.337V34.9176Z" fill="#040000"/>
<path d="M118.816 41.5059H113.213V45.1294H120.794V46.7765H103.491V45.1294H111.071V41.5059H105.633V31.7882H118.652V33.4353H107.775V35.9059H118.322V37.5529H107.775V40.0235H118.816V41.5059Z" fill="#040000"/>
<path d="M125.573 40.8471C125.408 40.6824 125.079 40.5176 125.079 40.3529C124.914 40.1882 124.914 39.8588 124.914 39.5294C124.914 39.2 124.914 39.0353 125.079 38.7059C125.243 38.3765 125.408 38.3765 125.573 38.2118C125.738 38.0471 126.067 38.0471 126.397 38.0471C126.727 38.0471 126.891 38.0471 127.056 38.2118C127.221 38.3765 127.386 38.5412 127.551 38.7059C127.715 38.8706 127.715 39.2 127.715 39.5294C127.715 39.8588 127.715 40.0235 127.551 40.3529C127.386 40.5176 127.221 40.6824 127.056 40.8471C126.891 41.0118 126.562 41.1765 126.397 41.1765C126.067 41.1765 125.903 41.0118 125.573 40.8471Z" fill="#040000"/>
<path d="M138.427 39.6941C137.438 41.8353 135.625 43.4823 132.989 44.9647L131.835 43.6471C133.813 42.4941 135.296 41.1765 136.285 39.5294C137.273 38.0471 137.933 36.2353 137.933 34.2588H132.494V32.6118H140.075C140.075 35.2471 139.581 37.7176 138.427 39.6941ZM148.15 48.9176H146.172V39.2H143.865V48.0941H142.052V30.8H143.865V37.7176H146.172V30.3059H148.15V48.9176Z" fill="#040000"/>
<path d="M161.663 33.7647H150.457V32.1176H155.071V29.9765H157.049V32.1176H161.663V33.7647ZM158.532 35.0824C159.191 35.4118 159.685 35.7412 160.18 36.2353C160.509 36.7294 160.674 37.3882 160.674 38.0471C160.674 38.7059 160.509 39.3647 160.18 39.8588C159.85 40.3529 159.191 40.6824 158.532 41.0118C157.873 41.3412 157.049 41.3412 156.225 41.3412C155.236 41.3412 154.577 41.1765 153.753 41.0118C152.929 40.8471 152.599 40.3529 152.105 39.8588C151.61 39.3647 151.61 38.7059 151.61 38.0471C151.61 37.3882 151.775 36.7294 152.105 36.2353C152.434 35.7412 153.094 35.4118 153.753 35.0824C154.412 34.7529 155.236 34.5882 156.225 34.5882C157.049 34.7529 157.873 34.7529 158.532 35.0824ZM162.652 42.8235C163.64 43.1529 164.3 43.4824 164.794 43.9765C165.288 44.4706 165.618 45.1294 165.618 45.7882C165.618 46.4471 165.288 47.1059 164.794 47.6C164.3 48.0941 163.64 48.4235 162.652 48.7529C161.663 49.0824 160.674 49.0824 159.356 49.0824C158.037 49.0824 156.884 48.9176 156.06 48.7529C155.071 48.4235 154.412 48.0941 153.918 47.6C153.423 47.1059 153.094 46.4471 153.258 45.7882C153.258 45.1294 153.423 44.4706 153.918 43.9765C154.412 43.4824 155.071 43.1529 156.06 42.8235C157.049 42.4941 158.037 42.4941 159.356 42.4941C160.509 42.4941 161.663 42.4941 162.652 42.8235ZM154.742 36.4C154.412 36.5647 154.082 36.7294 153.753 37.0588C153.588 37.3882 153.423 37.7176 153.423 38.0471C153.423 38.3765 153.588 38.7059 153.753 39.0353C153.918 39.3647 154.247 39.5294 154.742 39.6941C155.071 39.8588 155.566 39.8588 156.06 39.8588C156.884 39.8588 157.543 39.6941 158.037 39.3647C158.532 39.0353 158.697 38.5412 158.861 38.0471C158.861 37.5529 158.532 37.0588 158.037 36.7294C157.543 36.4 156.884 36.2353 156.06 36.2353C155.566 36.2353 155.236 36.2353 154.742 36.4ZM156.06 44.4706C155.401 44.8 154.906 45.1294 154.906 45.7882C154.906 46.2824 155.236 46.7765 156.06 47.1059C156.884 47.4353 157.873 47.6 159.191 47.6C160.509 47.6 161.498 47.4353 162.322 47.1059C163.146 46.7765 163.476 46.4471 163.476 45.7882C163.476 45.2941 163.146 44.8 162.322 44.4706C161.663 44.1412 160.509 43.9765 159.191 43.9765C157.873 43.9765 156.884 44.1412 156.06 44.4706ZM165.288 35.2471H168.09V36.8941H165.288V42.1647H163.311V30.1412H165.288V35.2471Z" fill="#040000"/>
<path d="M186.217 41.3412H178.801V44.9647H176.824V41.3412H169.079V39.6941H186.217V41.3412ZM184.24 48.5882H171.056V43.1529H173.034V46.9412H184.24V48.5882ZM183.91 37.7176H171.221V31.1294H183.91V37.7176ZM173.198 36.2353H182.097V32.7765H173.198V36.2353Z" fill="#040000"/>
<path d="M192.315 43.8118V41.8353C191.655 41.6706 190.996 41.5059 190.502 41.1765C190.007 40.8471 189.513 40.5176 189.348 40.0235C189.019 39.5294 188.854 39.0353 189.019 38.3765C189.019 37.7176 189.183 37.0588 189.513 36.5647C189.843 36.0706 190.337 35.5765 191.161 35.4118C191.82 35.0823 192.644 34.9176 193.468 34.9176C194.292 34.9176 195.116 35.0823 195.775 35.4118C196.434 35.7412 196.929 36.0706 197.423 36.5647C197.753 37.0588 198.082 37.7176 198.082 38.3765C198.082 39.0353 197.918 39.5294 197.588 40.0235C197.258 40.5176 196.929 40.8471 196.434 41.1765C195.94 41.5059 195.281 41.6706 194.622 41.8353V43.6471C196.434 43.6471 198.082 43.4824 199.566 43.1529L199.73 44.6353C197.918 44.9647 196.105 45.1294 194.292 45.2941C192.479 45.4588 190.337 45.4588 188.03 45.4588L187.7 43.8118C189.513 43.8118 191.161 43.8118 192.315 43.8118ZM198.906 34.0941H187.7V32.4471H192.315V30.3059H194.292V32.4471H198.906V34.0941ZM191.985 36.7294C191.655 36.8941 191.326 37.0588 190.996 37.3882C190.831 37.7176 190.667 38.0471 190.667 38.3765C190.667 39.0353 190.831 39.3647 191.326 39.8588C191.82 40.1882 192.479 40.3529 193.303 40.3529C194.127 40.3529 194.786 40.1882 195.281 39.8588C195.775 39.5294 195.94 39.0353 195.94 38.3765C195.94 38.0471 195.775 37.7176 195.61 37.3882C195.446 37.0588 195.116 36.8941 194.622 36.7294C194.292 36.5647 193.798 36.5647 193.303 36.5647C192.809 36.5647 192.315 36.5647 191.985 36.7294ZM202.202 38.0471H205.004V39.6941H202.202V48.9176H200.225V30.3059H202.202V38.0471Z" fill="#040000"/>
<path d="M213.243 38.7059C213.573 39.6941 214.232 40.6824 214.891 41.5059C215.551 42.3294 216.374 42.9882 217.363 43.3176L216.21 44.8C215.221 44.3059 214.232 43.4823 213.408 42.4941C212.584 41.5059 211.925 40.3529 211.595 39.2C211.101 40.5176 210.607 41.8353 209.618 42.8235C208.794 43.9765 207.805 44.6353 206.816 45.2941L205.663 43.6471C206.652 43.1529 207.476 42.4941 208.135 41.6706C208.959 40.8471 209.453 39.8588 209.948 38.7059C210.442 37.5529 210.607 36.5647 210.607 35.5765V33.6H206.322V31.9529H216.539V33.6H212.584V35.5765C212.584 36.7294 212.914 37.7176 213.243 38.7059ZM220.659 37.7176H223.625V39.3647H220.659V49.0823H218.682V30.3059H220.659V37.7176Z" fill="#040000"/>
<path d="M241.753 46.7765H224.614V45.1294H229.228V41.8353H226.592V35.9059H237.633V33.2706H226.592V31.6235H239.61V37.5529H228.569V40.3529H239.94V42H237.303V45.2941H241.753V46.7765ZM235.326 45.1294V41.8353H231.206V45.1294H235.326Z" fill="#040000"/>
<path d="M248.839 39.6941C251.146 39.5294 253.124 39.5294 254.772 39.2L254.936 40.6824C253.288 41.0118 251.311 41.1765 249.498 41.3412C247.521 41.5059 245.543 41.5059 243.236 41.5059L243.071 39.8588H243.236C243.73 39.8588 244.225 39.8588 245.049 39.8588C245.708 39.8588 246.367 39.8588 246.861 39.8588V35.9059H248.839V39.6941ZM253.618 32.7765V32.9412C253.618 33.9294 253.618 34.7529 253.453 35.5765C253.453 36.4 253.288 37.2235 253.124 38.2118L251.146 38.0471C251.311 37.0588 251.476 36.2353 251.476 35.5765C251.476 34.7529 251.64 34.0941 251.64 33.2706H244.06V31.6235H253.453V32.7765H253.618ZM258.562 48.5882H245.873V42.9882H247.85V46.9412H258.562V48.5882ZM258.067 36.2353H260.704V37.8823H258.067V44.3059H256.09V30.3059H258.067V36.2353Z" fill="#040000"/>
</svg>
