<svg width="967" height="709" viewBox="0 0 967 709" fill="none" xmlns="http://www.w3.org/2000/svg">
<path d="M0 392.024L441.631 2.77539C441.631 2.77539 449.964 -3.46924 456.213 2.77539C462.463 9.02001 687.444 244.234 952.006 31.917H966.589V44.4062C966.589 44.4062 872.846 185.951 691.611 190.114C691.611 190.114 556.205 175.543 452.047 98.5263L99.9919 396.187L160.404 450.307L474.962 183.87C474.962 183.87 697.86 417.002 962.422 225.5C962.422 225.5 927.008 352.474 710.359 354.556C710.359 354.556 629.116 360.801 477.045 277.539L112.491 577.281C112.491 577.281 179.152 641.809 287.477 641.809C289.56 641.809 289.56 641.809 291.643 641.809C402.051 641.809 418.716 618.912 508.292 539.813C508.292 539.813 570.787 466.959 635.365 462.796C635.365 462.796 699.943 458.633 670.779 498.182C670.779 498.182 524.958 629.319 445.797 670.95C445.797 670.95 393.718 708.418 302.059 708.418C302.059 708.418 147.905 714.663 24.998 575.199L114.574 494.019L0 392.024Z" fill="#F7E5D4" fill-opacity="0.25"/>
</svg>
