<svg xmlns="http://www.w3.org/2000/svg" xmlns:xlink="http://www.w3.org/1999/xlink" width="170" height="16.929" viewBox="0 0 170 16.929"><defs><clipPath id="a"><rect width="170" height="16.929" fill="none"/></clipPath></defs><g transform="translate(0 0)"><g transform="translate(0 0)" clip-path="url(#a)"><rect width="3.545" height="16.398" rx="0.5" transform="translate(0 0.265)" fill="#070303"/><path d="M13.85.791A.228.228,0,0,1,14.091.55h2.894a.447.447,0,0,1,.41.241l5.788,10.321H23.3V.791A.228.228,0,0,1,23.545.55h2.725a.228.228,0,0,1,.241.241V16.707a.228.228,0,0,1-.241.241H23.4a.424.424,0,0,1-.41-.241L17.178,6.41h-.121v10.3a.228.228,0,0,1-.241.241H14.091a.228.228,0,0,1-.241-.241Z" transform="translate(-7.171 -0.285)" fill="#070303"/><path d="M45.7,8.464a12.341,12.341,0,0,1,.458-4.437A5.643,5.643,0,0,1,51.994,0a5.768,5.768,0,0,1,5.715,3.641.186.186,0,0,1-.121.29L54.96,5.113a.23.23,0,0,1-.338-.121,2.7,2.7,0,0,0-2.6-1.857,2.407,2.407,0,0,0-2.46,1.809,11.265,11.265,0,0,0-.265,3.521,11.265,11.265,0,0,0,.265,3.521,2.407,2.407,0,0,0,2.46,1.809,2.7,2.7,0,0,0,2.6-1.857.23.23,0,0,1,.338-.121L57.588,13a.186.186,0,0,1,.121.29,5.768,5.768,0,0,1-5.715,3.641A5.643,5.643,0,0,1,46.158,12.9,12.343,12.343,0,0,1,45.7,8.464" transform="translate(-23.66 0)" fill="#070303"/><path d="M84.417,16.948a.326.326,0,0,1-.362-.241l-2.821-6H79.039a.128.128,0,0,0-.145.145v5.86a.228.228,0,0,1-.241.241H75.591a.228.228,0,0,1-.241-.241V.791A.228.228,0,0,1,75.591.55h6.535c3.352,0,5.57,2.1,5.57,5.088A4.8,4.8,0,0,1,84.779,10.2l3.231,6.463a.185.185,0,0,1-.169.289Zm-.265-11.31a1.993,1.993,0,0,0-2.219-2.026H79.039a.128.128,0,0,0-.145.145V7.543a.128.128,0,0,0,.145.145h2.894a2,2,0,0,0,2.219-2.05" transform="translate(-39.011 -0.285)" fill="#070303"/><path d="M106.4,10.919V.791A.228.228,0,0,1,106.64.55H109.7a.228.228,0,0,1,.241.241V11.016c0,1.953,1.085,3.063,2.749,3.063,1.64,0,2.725-1.11,2.725-3.063V.791a.228.228,0,0,1,.241-.241h3.063a.228.228,0,0,1,.241.241V10.919c0,4.076-2.6,6.294-6.27,6.294-3.69,0-6.294-2.218-6.294-6.294" transform="translate(-55.086 -0.285)" fill="#070303"/><rect width="3.545" height="16.398" rx="0.5" transform="translate(66.938 0.265)" fill="#070303"/><path d="M155.022,16.948a.228.228,0,0,1-.241-.241V3.854a.128.128,0,0,0-.145-.145h-4.148a.228.228,0,0,1-.241-.241V.791a.228.228,0,0,1,.241-.241h12.13a.228.228,0,0,1,.241.241V3.468a.228.228,0,0,1-.241.241h-4.148a.128.128,0,0,0-.144.145V16.707a.228.228,0,0,1-.241.241Z" transform="translate(-77.788 -0.285)" fill="#070303"/><path d="M201.378,16.948a.312.312,0,0,1-.313-.241l-2.846-10.2h-.048l-2.87,10.2a.312.312,0,0,1-.313.241h-2.411a.307.307,0,0,1-.29-.241L188.042.791c-.024-.145.024-.241.193-.241h3.111a.27.27,0,0,1,.289.241L194,11.089h.048l2.8-10.3a.312.312,0,0,1,.313-.241h2.1a.306.306,0,0,1,.289.241l2.894,10.3h.048l2.267-10.3a.254.254,0,0,1,.289-.241h3.087c.169,0,.217.1.193.241L204.1,16.707a.3.3,0,0,1-.313.241Z" transform="translate(-97.352 -0.285)" fill="#070303"/><path d="M233.007,12.95a13.266,13.266,0,0,1-.459-4.486,13.264,13.264,0,0,1,.459-4.486c.844-2.652,3.11-3.979,5.98-3.979s5.137,1.326,5.981,3.979a13.267,13.267,0,0,1,.458,4.486,13.269,13.269,0,0,1-.458,4.486c-.844,2.652-3.111,3.979-5.981,3.979s-5.136-1.326-5.98-3.979m8.56-.965a12.017,12.017,0,0,0,.266-3.521,12.019,12.019,0,0,0-.266-3.521,2.745,2.745,0,0,0-5.16,0,12.008,12.008,0,0,0-.265,3.521,12.006,12.006,0,0,0,.265,3.521,2.745,2.745,0,0,0,5.16,0" transform="translate(-120.397 0)" fill="#070303"/><path d="M273.916,16.948a.326.326,0,0,1-.362-.241l-2.822-6h-2.195a.128.128,0,0,0-.144.145v5.86a.228.228,0,0,1-.241.241h-3.063a.228.228,0,0,1-.241-.241V.791a.228.228,0,0,1,.241-.241h6.535c3.352,0,5.571,2.1,5.571,5.088a4.8,4.8,0,0,1-2.918,4.557l3.231,6.463a.186.186,0,0,1-.169.289Zm-.266-11.31a1.993,1.993,0,0,0-2.218-2.026h-2.894a.127.127,0,0,0-.144.145V7.543a.128.128,0,0,0,.144.145h2.894a2,2,0,0,0,2.218-2.05" transform="translate(-137.12 -0.285)" fill="#070303"/><path d="M296.047.791a.228.228,0,0,1,.241-.241h3.063a.228.228,0,0,1,.241.241v7.09l5.45-7.114a.426.426,0,0,1,.41-.217h3.5c.145,0,.217.169.1.313l-4.968,6.222,5.426,9.574c.1.169.024.289-.145.289h-3.545a.342.342,0,0,1-.362-.217l-3.714-6.9-2.146,2.7v4.172a.228.228,0,0,1-.241.241h-3.063a.228.228,0,0,1-.241-.241Z" transform="translate(-153.272 -0.285)" fill="#070303"/><path d="M325.945,14.686a.3.3,0,0,1-.025-.41l1.833-2.1a.242.242,0,0,1,.362-.024,6.96,6.96,0,0,0,4.292,1.688c1.712,0,2.677-.8,2.677-1.953,0-.965-.578-1.567-2.532-1.833l-.868-.121c-3.328-.458-5.185-2.026-5.185-4.919C326.5,2,328.766,0,332.311,0a9.275,9.275,0,0,1,5.571,1.712c.145.1.169.193.048.362l-1.471,2.194a.241.241,0,0,1-.338.072,6.776,6.776,0,0,0-3.81-1.254c-1.447,0-2.194.748-2.194,1.784,0,.941.675,1.544,2.556,1.809l.868.121c3.376.459,5.161,2,5.161,4.968s-2.195,5.16-6.438,5.16a9.668,9.668,0,0,1-6.318-2.243" transform="translate(-168.702 0)" fill="#070303"/></g></g></svg>