<svg xmlns="http://www.w3.org/2000/svg" xmlns:xlink="http://www.w3.org/1999/xlink" width="90" height="90" viewBox="0 0 90 90"><defs><style>.a{fill:url(#a);}.b{fill:none;}.c{fill:#fff;}.d{clip-path:url(#b);}.e{clip-path:url(#d);}.f{fill:url(#e);}.g{clip-path:url(#f);}.h{clip-path:url(#g);}.i{clip-path:url(#h);}</style><linearGradient id="a" x1="0.593" y1="0.204" x2="0.5" y2="1" gradientUnits="objectBoundingBox"><stop offset="0" stop-color="#68a2ff"/><stop offset="1" stop-color="#2c73e5"/></linearGradient><clipPath id="b"><path class="a" d="M16.77,0A9.18,9.18,0,0,0,7.5,9.261V21.783A9.432,9.432,0,0,0,7.616,23.6L1.5,28.109C.5,28.836.005,29.531,0,30.085V30.1c.007.722.845,1.2,2.464,1.2H60.075a9.606,9.606,0,0,0,9.51-9.522V9.261A9.383,9.383,0,0,0,60.075,0Z"/></clipPath><clipPath id="d"><rect class="b" width="87" height="68.871"/></clipPath><linearGradient id="e" x1="0.825" y1="0.081" x2="0.025" y2="1" gradientUnits="objectBoundingBox"><stop offset="0" stop-color="#61e6c7"/><stop offset="1" stop-color="#2ac9a4"/></linearGradient><clipPath id="f"><path class="c" d="M124.035,194.891a3.391,3.391,0,1,0,3.392-3.391,3.392,3.392,0,0,0-3.392,3.391" transform="translate(-124.035 -191.5)"/></clipPath><clipPath id="g"><path class="c" d="M172.036,194.891a3.391,3.391,0,1,0,3.391-3.391,3.391,3.391,0,0,0-3.391,3.391" transform="translate(-172.036 -191.5)"/></clipPath><clipPath id="h"><path class="c" d="M220.036,194.891a3.391,3.391,0,1,0,3.391-3.391,3.391,3.391,0,0,0-3.391,3.391" transform="translate(-220.036 -191.5)"/></clipPath></defs><g transform="translate(-1359 -1550)"><g transform="translate(1361 1561)"><g class="d"><rect class="a" width="53.241" height="76.098" transform="translate(-10.072 27.634) rotate(-69.974)"/></g><g class="e"><path class="f" d="M136.319,172.109l-5.772-4.293a9.7,9.7,0,0,0,.278-2.033V153.261a9.383,9.383,0,0,0-9.51-9.261H78.01a9.18,9.18,0,0,0-9.273,9.261v12.522a9.4,9.4,0,0,0,9.273,9.522h57.313c2.87,0,3.318-1.51,1-3.2" transform="translate(-50.805 -106.434)"/><path class="c" d="M92.818,50.891A3.391,3.391,0,1,1,89.426,47.5a3.391,3.391,0,0,1,3.391,3.391" transform="translate(-63.591 -35.108)"/><path class="c" d="M140.819,50.891a3.391,3.391,0,1,1-3.391-3.391,3.391,3.391,0,0,1,3.391,3.391" transform="translate(-99.069 -35.108)"/><path class="c" d="M188.819,50.891a3.391,3.391,0,1,1-3.391-3.391,3.391,3.391,0,0,1,3.391,3.391" transform="translate(-134.547 -35.108)"/></g><g transform="translate(32.358 49.958)"><g class="g"><rect class="c" width="8.129" height="8.129" transform="translate(-1.48 6.443) rotate(-77.065)"/></g></g><g transform="translate(44.88 49.958)"><g class="h"><rect class="c" width="8.129" height="8.129" transform="translate(-1.48 6.443) rotate(-77.065)"/></g></g><g transform="translate(57.402 49.958)"><g class="i"><rect class="c" width="8.129" height="8.129" transform="translate(-1.48 6.443) rotate(-77.066)"/></g></g></g><rect class="b" width="90" height="90" transform="translate(1359 1550)"/></g></svg>