<svg xmlns="http://www.w3.org/2000/svg" xmlns:xlink="http://www.w3.org/1999/xlink" width="90" height="90" viewBox="0 0 90 90"><defs><style>.a{fill:url(#a);}.b{fill:none;}.c{fill:url(#b);}.d{clip-path:url(#c);}.e{clip-path:url(#e);}.f{fill:#b2cff5;}.g{clip-path:url(#f);}.h{fill:#fff;stroke:#fff;stroke-width:2px;}.i{fill:#2ac9a4;}.j{stroke:none;}</style><linearGradient id="a" x1="0.5" y1="0.257" x2="0.5" y2="0.794" gradientUnits="objectBoundingBox"><stop offset="0" stop-color="#68a2ff"/><stop offset="1" stop-color="#3e80eb"/></linearGradient><linearGradient id="b" x1="0.5" x2="0.5" y2="1" gradientUnits="objectBoundingBox"><stop offset="0" stop-color="#3e80eb"/><stop offset="1" stop-color="#68a2ff"/></linearGradient><clipPath id="c"><path class="a" d="M91.309,194.949v9.079H77.562a3.226,3.226,0,1,0,0,6.443h33.882a3.226,3.226,0,1,0,0-6.443H97.751v-9.079a3.226,3.226,0,1,0-6.443,0" transform="translate(-74.174 -191.561)"/></clipPath><clipPath id="e"><rect class="b" width="79.793" height="70.927"/></clipPath><clipPath id="f"><path class="c" d="M10.425,0C4.835,0,0,4.111,0,9.7v31.1H80V9.7A9.62,9.62,0,0,0,70.056,0Z"/></clipPath></defs><g transform="translate(-655 -1789)"><g transform="translate(-11.667 6)"><g transform="translate(671.667 1794)"><g transform="translate(19.913 51.721)"><g class="d"><rect class="a" width="40.658" height="18.91"/></g></g><g transform="translate(0.104 0)"><g class="e"><path class="f" d="M0,152v4.132A10.6,10.6,0,0,0,10.425,166.5H70.056A10.182,10.182,0,0,0,80,156.132V152Z" transform="translate(-0.104 -110.899)"/></g></g><g transform="translate(0 0.296)"><g class="g"><rect class="c" width="78.623" height="89.126" transform="matrix(0.56, -0.828, 0.828, 0.56, -18.938, 27.995)"/></g></g></g><g class="h" transform="translate(697.667 1805)"><ellipse class="j" cx="14" cy="10" rx="14" ry="10"/><ellipse class="b" cx="14" cy="10" rx="13" ry="9"/></g><ellipse class="i" cx="3.5" cy="4" rx="3.5" ry="4" transform="translate(708.667 1811)"/></g><rect class="b" width="90" height="90" transform="translate(655 1789)"/></g></svg>