<svg xmlns="http://www.w3.org/2000/svg" xmlns:xlink="http://www.w3.org/1999/xlink" width="67.66" height="81" viewBox="0 0 67.66 81"><defs><style>.a{fill:url(#a);}.b{fill:#fff;}.c{fill:none;stroke:#fff;stroke-linecap:round;stroke-width:2px;}.d{fill:url(#b);}</style><linearGradient id="a" x1="0.915" y1="0.257" x2="0.104" y2="1" gradientUnits="objectBoundingBox"><stop offset="0" stop-color="#68a2ff"/><stop offset="1" stop-color="#2c73e5"/></linearGradient><linearGradient id="b" x1="0.826" y1="0.104" x2="0.208" y2="0.785" gradientUnits="objectBoundingBox"><stop offset="0" stop-color="#61e6c7"/><stop offset="1" stop-color="#2ac9a4"/></linearGradient></defs><g transform="translate(-1027 -1560)"><g transform="translate(-22.528 8)"><path class="a" d="M62.592,80.56a10.232,10.232,0,0,1-10.18,10.278H10.271A10.309,10.309,0,0,1,0,80.56V26.22A10.22,10.22,0,0,1,10.271,16.046H52.411A10.143,10.143,0,0,1,62.592,26.22Z" transform="translate(1049.528 1542.162)"/><path class="b" d="M1.54,24.243A2,2,0,0,1,.152,20.8L7.7,13.535a7.5,7.5,0,1,1,8.93,0L24.177,20.8a2,2,0,0,1-1.388,3.441Z" transform="translate(1068.66 1571.141)"/><line class="c" x2="40.406" transform="translate(1060.651 1606.351)"/><line class="c" x2="40.406" transform="translate(1060.651 1615.587)"/><circle class="d" cx="11.5" cy="11.5" r="11.5" transform="translate(1094.188 1552)"/><g transform="translate(1101.661 1561.057)"><line class="c" x2="2.631" y2="2.588" transform="translate(0 2.588)"/><line class="c" x1="6.47" y2="5.176" transform="translate(2.631)"/></g></g></g></svg>