<svg xmlns="http://www.w3.org/2000/svg" width="28.916" height="11.813" viewBox="0 0 28.916 11.813"><defs><style>.a{fill:#2c73e5;}</style></defs><path class="a" d="M-14.645-11.5v1.469h3.828V0h1.7V-10.031h3.828V-11.5ZM-.57.156C2.6.156,4.6-2.125,4.6-5.75c0-3.641-2-5.906-5.172-5.906S-5.727-9.391-5.727-5.75C-5.727-2.125-3.742.156-.57.156ZM-3.914-5.75c0-2.828,1.219-4.437,3.344-4.437,2.141,0,3.359,1.609,3.359,4.438,0,2.813-1.219,4.438-3.359,4.438C-2.7-1.312-3.914-2.937-3.914-5.75ZM10.4-11.5H5.973V0h1.7V-4.266H10.4c2.391,0,3.875-1.391,3.875-3.625C14.27-10.094,12.817-11.5,10.4-11.5ZM7.677-5.734v-4.3H10.4a1.994,1.994,0,0,1,2.219,2.141A1.991,1.991,0,0,1,10.4-5.734Z" transform="translate(14.645 11.656)"/></svg>