<svg xmlns="http://www.w3.org/2000/svg" width="25.091" height="14.141" viewBox="0 0 25.091 14.141"><defs><style>.a{fill:#fff;}</style></defs><path class="a" d="M13.563-5.687H.766v1.031H6.625v2.875H7.891V-4.656h5.672ZM2.406.891h9.734V-.156H3.672v-3H2.406ZM2.422-7.3h9.484V-12.25H2.422ZM3.656-8.312v-2.922h7v2.922ZM18.95-11.891c-2.219,0-3.8,1.359-3.8,3.328s1.578,3.328,3.8,3.328c2.188,0,3.766-1.359,3.766-3.328S21.138-11.891,18.95-11.891ZM14.434-2.937l.172,1.063A49.7,49.7,0,0,0,23.763-2.5l-.109-.937A62.2,62.2,0,0,1,14.434-2.937Zm1.953-5.625a2.3,2.3,0,0,1,2.563-2.219,2.294,2.294,0,0,1,2.531,2.219A2.3,2.3,0,0,1,18.95-6.344,2.314,2.314,0,0,1,16.388-8.562Zm8.2,9.781h1.266V-12.922H24.591Z" transform="translate(-0.766 12.922)"/></svg>