<svg xmlns="http://www.w3.org/2000/svg" width="24" height="23.999" viewBox="0 0 24 23.999"><defs><style>.a{fill:#fff;}.b{fill:#3e80eb;}</style></defs><g transform="translate(-14 -14)"><path class="a" d="M-1995,10a12,12,0,0,1,12-12,12,12,0,0,1,12,12,11.949,11.949,0,0,1-1.358,5.551l1.118,3.257a1,1,0,0,1-1.17,1.3l-3.118-.717A11.949,11.949,0,0,1-1983,22,12,12,0,0,1-1995,10Z" transform="translate(2009 16)"/><g transform="translate(-1816 -909)"><circle class="b" cx="1.5" cy="1.5" r="1.5" transform="translate(1836 933)"/><circle class="b" cx="1.5" cy="1.5" r="1.5" transform="translate(1841 933)"/><circle class="b" cx="1.5" cy="1.5" r="1.5" transform="translate(1846 933)"/></g></g></svg>