<svg xmlns="http://www.w3.org/2000/svg" xmlns:xlink="http://www.w3.org/1999/xlink" width="1834.034" height="569.267" viewBox="0 0 1834.034 569.267"><defs><style>.a{fill:#e0f6f1;}.b{fill:#deecff;}.c{clip-path:url(#a);}.d{clip-path:url(#b);}</style><clipPath id="a"><rect class="a" width="349.77" height="349.772"/></clipPath><clipPath id="b"><rect class="b" width="273.495" height="273.497"/></clipPath></defs><g transform="translate(40.539 -6405.23)"><g transform="translate(309.233 6405.23) rotate(90)"><g class="c"><path class="a" d="M73.5,36.748v87.443h87.443A87.7,87.7,0,0,1,73.5,36.748" transform="translate(101.389 50.695)"/><path class="a" d="M160.939,73.5H73.5v87.445A87.7,87.7,0,0,1,160.939,73.5" transform="translate(101.389 101.389)"/><path class="a" d="M160.939,73.5A87.7,87.7,0,0,0,73.5,160.941h87.443Z" transform="translate(101.389 101.389)"/><path class="a" d="M73.5,110.245a87.7,87.7,0,0,0,87.443,87.443V110.245Z" transform="translate(101.389 152.085)"/><path class="a" d="M110.244,73.5v87.445h87.443A87.7,87.7,0,0,0,110.244,73.5" transform="translate(152.084 101.389)"/><path class="a" d="M110.244,197.688a87.7,87.7,0,0,0,87.443-87.443H110.244Z" transform="translate(152.084 152.085)"/><path class="a" d="M36.748,124.191h87.443V36.748a87.7,87.7,0,0,1-87.443,87.443" transform="translate(50.695 50.695)"/><path class="a" d="M87.443,0A87.7,87.7,0,0,0,0,87.443H87.443Z"/><path class="a" d="M0,36.748a87.7,87.7,0,0,0,87.443,87.443V36.748Z" transform="translate(0 50.695)"/><path class="a" d="M36.748,0V87.443h87.443A87.7,87.7,0,0,0,36.748,0" transform="translate(50.695)"/><path class="a" d="M36.748,124.191a87.7,87.7,0,0,0,87.443-87.443H36.748Z" transform="translate(50.695 50.695)"/><path class="a" d="M36.748,73.5a87.7,87.7,0,0,1,87.443,87.445V73.5Z" transform="translate(50.695 101.389)"/></g></g><g transform="translate(1520 6701)"><g class="d"><path class="b" d="M73.5,36.748v68.374H141.87A68.574,68.574,0,0,1,73.5,36.748" transform="translate(63.251 31.626)"/><path class="b" d="M141.87,73.5H73.5v68.376A68.577,68.577,0,0,1,141.87,73.5" transform="translate(63.251 63.251)"/><path class="b" d="M141.87,73.5A68.577,68.577,0,0,0,73.5,141.872H141.87Z" transform="translate(63.251 63.251)"/><path class="b" d="M73.5,110.245a68.574,68.574,0,0,0,68.374,68.374V110.245Z" transform="translate(63.251 94.878)"/><path class="b" d="M110.244,73.5v68.376h68.374A68.578,68.578,0,0,0,110.244,73.5" transform="translate(94.877 63.251)"/><path class="b" d="M110.244,178.619a68.576,68.576,0,0,0,68.374-68.374H110.244Z" transform="translate(94.877 94.878)"/><path class="b" d="M36.748,105.122h68.374V36.748a68.574,68.574,0,0,1-68.374,68.374" transform="translate(31.626 31.626)"/><path class="b" d="M68.374,0A68.574,68.574,0,0,0,0,68.374H68.374Z"/><path class="b" d="M0,36.748a68.574,68.574,0,0,0,68.374,68.374V36.748Z" transform="translate(0 31.626)"/><path class="b" d="M36.748,0V68.374h68.374A68.576,68.576,0,0,0,36.748,0" transform="translate(31.626)"/><path class="b" d="M36.748,105.122a68.574,68.574,0,0,0,68.374-68.374H36.748Z" transform="translate(31.626 31.626)"/><path class="b" d="M36.748,73.5a68.578,68.578,0,0,1,68.374,68.376V73.5Z" transform="translate(31.626 63.251)"/></g></g></g></svg>