<svg xmlns="http://www.w3.org/2000/svg" xmlns:xlink="http://www.w3.org/1999/xlink" width="90" height="90" viewBox="0 0 90 90"><defs><style>.a{fill:none;}.b{clip-path:url(#a);}.c{fill:url(#b);}.d{clip-path:url(#c);}.e{fill:#fff;}.f{fill:url(#d);}</style><clipPath id="a"><path class="a" d="M10.909,5.656A27.669,27.669,0,0,0,41.986,51.348l10.476,13.76a2.947,2.947,0,0,0,4.69-3.571L46.678,47.778A27.669,27.669,0,0,0,10.909,5.656" transform="translate(0 0)"/></clipPath><linearGradient id="b" x1="0.623" y1="0.193" x2="0.535" y2="0.807" gradientUnits="objectBoundingBox"><stop offset="0" stop-color="#68a2ff"/><stop offset="1" stop-color="#2c73e5"/></linearGradient><clipPath id="c"><rect class="a" width="70.736" height="82"/></clipPath><linearGradient id="d" x1="0.196" y1="0.205" x2="0.701" y2="0.5" gradientUnits="objectBoundingBox"><stop offset="0" stop-color="#61e6c7"/><stop offset="1" stop-color="#2ac9a4"/></linearGradient></defs><g transform="translate(-1025 -1790)"><g transform="translate(1035 1794)"><g transform="translate(0 0)"><g class="b" transform="translate(0 0)"><rect class="c" width="83.264" height="80.354" transform="matrix(0.328, -0.945, 0.945, 0.328, -24.226, 59.504)"/></g></g><g transform="translate(0 0)"><g class="d"><path class="e" d="M64.255,36.873a19.54,19.54,0,1,1-27.383-3.71,19.539,19.539,0,0,1,27.383,3.71" transform="translate(-21.038 -21.039)"/><path class="f" d="M191.468,215.657a4.472,4.472,0,0,1-.847,6.249l-3.066,2.335a4.473,4.473,0,0,1-6.25-.847L169.55,207.956a4.473,4.473,0,0,1,.847-6.25l3.066-2.334a4.473,4.473,0,0,1,6.25.847Z" transform="translate(-121.639 -143.149)"/></g></g></g><rect class="a" width="90" height="90" transform="translate(1025 1790)"/></g></svg>