<svg xmlns="http://www.w3.org/2000/svg" xmlns:xlink="http://www.w3.org/1999/xlink" width="90" height="90" viewBox="0 0 90 90"><defs><style>.a{fill:none;}.b{clip-path:url(#a);}.c{fill:#b2cff5;}.d{clip-path:url(#b);}.e{fill:url(#c);}.f{fill:#eff6ff;}.g{fill:url(#f);}</style><clipPath id="a"><rect class="a" width="57" height="87" transform="translate(0.363 0)"/></clipPath><clipPath id="b"><rect class="a" width="57" height="66" rx="7" transform="translate(0.363 -0.033)"/></clipPath><linearGradient id="c" x1="0.549" y1="0.056" x2="0.441" y2="0.94" gradientUnits="objectBoundingBox"><stop offset="0" stop-color="#68a2ff"/><stop offset="1" stop-color="#2c73e5"/></linearGradient><linearGradient id="f" x1="0.5" y1="0.104" x2="0.5" y2="0.805" gradientUnits="objectBoundingBox"><stop offset="0" stop-color="#61e6c7"/><stop offset="1" stop-color="#2ac9a4"/></linearGradient></defs><g transform="translate(-655 -1556)"><g transform="translate(-10.573 13)"><g transform="translate(682.21 1545)"><g transform="translate(0 0)"><g class="b" transform="translate(0 0)"><path class="c" d="M54.811,32.882a2.481,2.481,0,0,1-2.154-1.25L36.7,3.712A2.481,2.481,0,0,1,38.854,0H70.768a2.481,2.481,0,0,1,2.154,3.712L56.965,31.632a2.481,2.481,0,0,1-2.154,1.25M43.13,4.962,54.811,25.4,66.492,4.962Z" transform="translate(-26.554 0.225)"/></g></g><g transform="translate(0 21.033)"><g class="d" transform="translate(0 0)"><rect class="e" width="86.279" height="86.348" rx="6" transform="matrix(0.711, -0.703, 0.703, 0.711, -31.953, 32.429)"/></g></g><g transform="translate(0 0)"><g class="b" transform="translate(0 0)"><rect class="f" width="46" height="53" rx="6" transform="translate(5.363 27)"/></g></g></g><path class="g" d="M2.134,26.89A2,2,0,0,1,.747,23.45l8.761-8.437a8.323,8.323,0,1,1,9.905,0l8.761,8.436a2,2,0,0,1-1.387,3.441Z" transform="translate(696.828 1585.086)"/></g><rect class="a" width="90" height="90" transform="translate(655 1556)"/></g></svg>