<svg xmlns="http://www.w3.org/2000/svg" width="30" height="30" viewBox="0 0 30 30">
    <path data-name="패스 1226" d="M30 30H0V0h30z" style="fill:none;opacity:.87"/>
    <path data-name="패스 1776" d="M24.508 5.856a1.475 1.475 0 0 0-2.089 0l-7.245 7.23L7.93 5.841A1.477 1.477 0 0 0 5.841 7.93l7.245 7.245-7.245 7.244a1.477 1.477 0 0 0 2.089 2.089l7.245-7.245 7.245 7.245a1.477 1.477 0 0 0 2.089-2.089l-7.245-7.245 7.244-7.244a1.485 1.485 0 0 0 0-2.074z" transform="translate(-.408 -.408)" style="fill:#f5f5f5"/>
</svg>
